# xmcd CD database file
#
# Track frame offsets:
#	187
#	36115
#	78222
#	104430
#	134910
#
# Disc length: 2201 seconds
#
# Revision: 1
# Processed by: cddbd v1.4PL0 Copyright (c) Steve Scherf et al.
# Submitted via: CDex 1.50beta10
#
DISCID=3e089705
DTITLE=Milt Jackson - Goodbye
DYEAR=1973
DGENRE=Jazz
TTITLE0=Detour ahead
TTITLE1=Goodbye
TTITLE2=Old devil moon
TTITLE3=SKJ
TTITLE4=Opus de funk
EXTD=YEAR: 1973
EXTT0=
EXTT1=
EXTT2=
EXTT3=
EXTT4=
PLAYORDER=
